# xmcd
#
# Track frame offsets:
#	150
#	10870
#	23897
#	37887
#	48770
#	59137
#	69025
#	81837
#	95075
#	107862
#	117235
#	130382
#	142967
#	156050
#
# Disc length: 2211 seconds
#
# Revision: 1
# Processed by: cddbd v1.5.2PL0 Copyright (c) Steve Scherf et al.
# Submitted via: audiograbber 1.83.01
#
DISCID=b508a10e
DTITLE=Freddy Fender - Freddy Fender Gold
DYEAR=1900
DGENRE=Pop
TTITLE0=A Man Can Cry
TTITLE1=Silver Wings
TTITLE2=Baby I Wont To Love You
TTITLE3=Wild Side Of Live
TTITLE4=Crazy Baby
TTITLE5=But I Do
TTITLE6=Going Out Whith The Tide
TTITLE7=The Girl Who Waits On Tables
TTITLE8=Enter My Heart
TTITLE9=Running Back
TTITLE10=Just Because
TTITLE11=Ooh Poo Pah Doo
TTITLE12=Something On Your Mind
TTITLE13=Before The Next Teardrop Falls
EXTD=
EXTT0=
EXTT1=
EXTT2=
EXTT3=
EXTT4=
EXTT5=
EXTT6=
EXTT7=
EXTT8=
EXTT9=
EXTT10=
EXTT11=
EXTT12=
EXTT13=
PLAYORDER=
